<svg width="18" height="17" viewBox="0 0 18 17" fill="none" xmlns="http://www.w3.org/2000/svg">
<path d="M4.62533 10.6876H9.91699C10.0837 10.6876 10.226 10.6286 10.3441 10.5105C10.4621 10.3924 10.5212 10.2431 10.5212 10.0626C10.5212 9.88203 10.4621 9.73272 10.3441 9.61467C10.226 9.49661 10.0767 9.43758 9.89616 9.43758H4.60449C4.43783 9.43758 4.29546 9.49661 4.17741 9.61467C4.05935 9.73272 4.00033 9.88203 4.00033 10.0626C4.00033 10.2431 4.05935 10.3924 4.17741 10.5105C4.29546 10.6286 4.44477 10.6876 4.62533 10.6876ZM4.62533 7.97925H13.3962C13.5628 7.97925 13.7052 7.92022 13.8232 7.80217C13.9413 7.68411 14.0003 7.5348 14.0003 7.35425C14.0003 7.17369 13.9413 7.02439 13.8232 6.90633C13.7052 6.78828 13.5559 6.72925 13.3753 6.72925H4.60449C4.43783 6.72925 4.29546 6.78828 4.17741 6.90633C4.05935 7.02439 4.00033 7.17369 4.00033 7.35425C4.00033 7.5348 4.05935 7.68411 4.17741 7.80217C4.29546 7.92022 4.44477 7.97925 4.62533 7.97925ZM4.62533 5.27092H13.3962C13.5628 5.27092 13.7052 5.21189 13.8232 5.09383C13.9413 4.97578 14.0003 4.82647 14.0003 4.64591C14.0003 4.46536 13.9413 4.31605 13.8232 4.198C13.7052 4.07994 13.5559 4.02091 13.3753 4.02091H4.60449C4.43783 4.02091 4.29546 4.07994 4.17741 4.198C4.05935 4.31605 4.00033 4.46536 4.00033 4.64591C4.00033 4.82647 4.05935 4.97578 4.17741 5.09383C4.29546 5.21189 4.44477 5.27092 4.62533 5.27092ZM0.666992 15.8334V1.91675C0.666992 1.5973 0.791992 1.30911 1.04199 1.05216C1.29199 0.79522 1.58366 0.666748 1.91699 0.666748H16.0837C16.4031 0.666748 16.6913 0.79522 16.9482 1.05216C17.2052 1.30911 17.3337 1.5973 17.3337 1.91675V12.7501C17.3337 13.0695 17.2052 13.3577 16.9482 13.6147C16.6913 13.8716 16.4031 14.0001 16.0837 14.0001H4.00033L1.72949 16.2709C1.53505 16.4654 1.30935 16.5105 1.05241 16.4063C0.795464 16.3022 0.666992 16.1112 0.666992 15.8334Z" fill="#687684"/>
</svg>
