<svg width="16" height="16" viewBox="0 0 16 16" fill="none" xmlns="http://www.w3.org/2000/svg">
<path d="M8 7.975C6.9 7.975 6 7.625 5.3 6.925C4.6 6.225 4.25 5.325 4.25 4.225C4.25 3.125 4.6 2.225 5.3 1.525C6 0.824998 6.9 0.474998 8 0.474998C9.1 0.474998 10 0.824998 10.7 1.525C11.4 2.225 11.75 3.125 11.75 4.225C11.75 5.325 11.4 6.225 10.7 6.925C10 7.625 9.1 7.975 8 7.975ZM1.5 16C1.08333 16 0.729167 15.8542 0.4375 15.5625C0.145833 15.2708 0 14.9167 0 14.5V13.65C0 13.0167 0.158333 12.475 0.475 12.025C0.791667 11.575 1.2 11.2333 1.7 11C2.81667 10.5 3.8875 10.125 4.9125 9.875C5.9375 9.625 6.96667 9.5 8 9.5C9.03333 9.5 10.0583 9.62917 11.075 9.8875C12.0917 10.1458 13.1583 10.5167 14.275 11C14.7917 11.2333 15.2083 11.575 15.525 12.025C15.8417 12.475 16 13.0167 16 13.65V14.5C16 14.9167 15.8542 15.2708 15.5625 15.5625C15.2708 15.8542 14.9167 16 14.5 16H1.5Z" fill="#687684"/>
</svg>
