<svg width="21" height="19" viewBox="0 0 21 19" fill="none" xmlns="http://www.w3.org/2000/svg">
<path d="M3.75 19C2.7 19 1.8125 18.6375 1.0875 17.9125C0.3625 17.1875 0 16.3 0 15.25C0 14.2 0.3625 13.3125 1.0875 12.5875C1.8125 11.8625 2.7 11.5 3.75 11.5C4.8 11.5 5.6875 11.8625 6.4125 12.5875C7.1375 13.3125 7.5 14.2 7.5 15.25C7.5 16.3 7.1375 17.1875 6.4125 17.9125C5.6875 18.6375 4.8 19 3.75 19ZM16.275 19C15.225 19 14.3375 18.6375 13.6125 17.9125C12.8875 17.1875 12.525 16.3 12.525 15.25C12.525 14.2 12.8875 13.3125 13.6125 12.5875C14.3375 11.8625 15.225 11.5 16.275 11.5C17.325 11.5 18.2125 11.8625 18.9375 12.5875C19.6625 13.3125 20.025 14.2 20.025 15.25C20.025 16.3 19.6625 17.1875 18.9375 17.9125C18.2125 18.6375 17.325 19 16.275 19ZM10.025 8.47498C8.975 8.47498 8.0875 8.11248 7.3625 7.38748C6.6375 6.66248 6.275 5.77498 6.275 4.72498C6.275 3.67498 6.6375 2.78748 7.3625 2.06248C8.0875 1.33748 8.975 0.974976 10.025 0.974976C11.075 0.974976 11.9625 1.33748 12.6875 2.06248C13.4125 2.78748 13.775 3.67498 13.775 4.72498C13.775 5.77498 13.4125 6.66248 12.6875 7.38748C11.9625 8.11248 11.075 8.47498 10.025 8.47498Z" fill="#687684"/>
</svg>
